Music_HighSpeed:
	channel_count 4
	channel 1, Music_HighSpeed_Ch1
	channel 2, Music_HighSpeed_Ch2
	channel 3, Music_HighSpeed_Ch3
	channel 4, Music_HighSpeed_Ch4

Music_HighSpeed_Ch1:
	tempo 112
	volume 7, 7
	stereo_panning FALSE, TRUE
	pitch_offset 1
	vibrato 18, 3, 3
	duty_cycle 2
	note_type 6, 9, 7
	octave 2
	note G_, 1
	rest 1
	note G_, 1
	rest 1
.mainloop:
	pitch_offset 1
	octave 2
	note G_, 16
	rest 8
	note G_, 2
	rest 2
	note_type 12, 9, 7
	note G_, 2
	note G_, 10
	rest 4
	note_type 6, 9, 7
	note G_, 1
	rest 1
	note G_, 1
	rest 1
	note G_, 16
	rest 8
	note G_, 2
	rest 2
	note_type 12, 9, 7
	note G_, 2
	note G_, 8
	rest 8
	pitch_offset 0
	stereo_panning TRUE, FALSE
	volume_envelope 6, 1
	sound_call Music_HighSpeed_Ch2.sub4
	octave 5
	note G_, 1
	octave 4
	note B_, 1
	note A_, 1
	note G_, 1
	octave 5
	note G_, 1
	octave 4
	note B_, 1
	note A_, 1
	note G_, 1
	octave 5
	note G_, 1
	octave 4
	note B_, 1
	note A_, 1
	note G_, 1
	octave 5
	note G_, 1
	octave 4
	note B_, 1
	note A_, 1
	note G_, 1
	sound_call Music_HighSpeed_Ch2.sub4
	sound_call Music_HighSpeed_Ch2.sub5
	stereo_panning FALSE, TRUE
	duty_cycle 2
	note_type 6, 9, 2
	rest 4
	octave 2
	note B_, 1
	rest 7
	note B_, 1
	rest 7
	note B_, 1
	rest 7
	note B_, 1
	rest 3
	rest 4
	note B_, 1
	rest 7
	note B_, 1
	rest 7
	note B_, 4
	note B_, 4
	note B_, 2
	rest 2
	rest 4
	note B_, 1
	rest 7
	note B_, 1
	rest 7
	octave 3
	note F#, 1
	rest 7
	note F#, 1
	rest 3
	rest 4
	note F#, 1
	rest 7
	note F#, 1
	rest 7
	note F#, 1
	rest 7
	pitch_offset 2
	stereo_panning TRUE, TRUE
	duty_cycle 1
	volume_envelope 9, 7
	octave 4
	note D_, 1
	rest 1
	octave 3
	note A#, 1
	rest 1
	pitch_offset 0
	stereo_panning FALSE, TRUE
	duty_cycle 2
	volume_envelope 9, 2
	rest 4
	note G_, 1
	rest 7
	note G_, 1
	rest 7
	note G_, 1
	rest 7
	note G_, 1
	rest 3
	rest 4
	note G_, 1
	rest 7
	note G_, 1
	rest 7
	note E_, 4
	octave 2
	note B_, 4
	note G_, 2
	rest 2
	note_type 12, 9, 5
	rest 2
	pitch_offset 2
	stereo_panning TRUE, TRUE
	duty_cycle 1
	octave 4
	note C_, 1
	note E_, 1
	note G_, 1
	rest 1
	note E_, 1
	note C_, 1
	octave 3
	note E_, 1
	note C_, 1
	note E_, 1
	note G_, 1
	octave 4
	note C_, 1
	note E_, 1
	note G_, 1
	octave 5
	note C_, 1
	octave 4
	note E_, 6
	note D_, 2
	note C_, 1
	note D_, 1
	note F#, 1
	note A_, 1
	octave 5
	note C_, 1
	note D_, 1
	octave 4
	note G_, 1
	note F#, 1
	pitch_offset 0
	stereo_panning FALSE, TRUE
	duty_cycle 2
	volume_envelope 9, 7
	note G_, 8
	note F#, 8
	note E_, 8
	note D_, 8
	octave 3
	note B_, 8
	note A#, 2
	rest 2
	note B_, 1
	rest 1
	duty_cycle 1
	volume_envelope 7, 5
	octave 4
	note F#, 2
	octave 5
	note A_, 4
	note F#, 4
	note D_, 4
	octave 4
	note A#, 2
	stereo_panning TRUE, TRUE
	pitch_offset 2
	duty_cycle 3
	note_type 6, 9, 7
	note D_, 1
	rest 1
	octave 3
	note A#, 1
	rest 1
	stereo_panning FALSE, TRUE
	pitch_offset 0
	duty_cycle 2
	volume_envelope 9, 7
	note G_, 16
	note A_, 16
	note B_, 4
	rest 4
	note B_, 4
	rest 4
	octave 4
	note E_, 8
	note G_, 8
	note F#, 1
	vibrato 0, 0, 0
	volume_envelope 8, 8
	note G_, 10
	vibrato 2, 2, 3
	volume_envelope 8, 7
	note G_, 9
	vibrato 8, 3, 3
	note C_, 4
	note E_, 4
	note C_, 4
	note D_, 12
	note F#, 12
	rest 4
	volume_envelope 9, 2
	octave 2
	note A_, 1
	rest 3
	volume_envelope 8, 7
	note B_, 2
	octave 3
	note D_, 2
	note F#, 2
	note A_, 2
	note D_, 2
	note F#, 2
	note A_, 2
	octave 4
	note D_, 2
	note F#, 2
	volume_envelope 9, 2
	rest 2
	octave 3
	note F#, 1
	rest 7
	note F#, 1
	rest 3
	rest 4
	note G_, 1
	rest 7
	note G_, 1
	rest 7
	note G_, 1
	rest 7
	note G_, 1
	rest 3
	rest 4
	note E_, 1
	rest 7
	note E_, 1
	rest 7
	note E_, 1
	rest 7
	note E_, 1
	rest 3
	note_type 12, 9, 5
	octave 4
	note G_, 8
	note F#, 1
	note D_, 1
	octave 3
	note A_, 1
	octave 4
	note D_, 1
	octave 3
	note A_, 1
	note F#, 1
	note D_, 1
	octave 2
	note A_, 1
	note B_, 1
	octave 3
	note D_, 1
	note F#, 1
	note A_, 1
	note D_, 1
	note F#, 1
	note A_, 1
	octave 4
	note D_, 1
	note F#, 1
	note_type 6, 9, 2
	rest 2
	octave 3
	note F#, 1
	rest 7
	note F#, 1
	rest 3
	rest 4
	note G_, 1
	rest 7
	note G_, 1
	rest 7
	note G_, 1
	rest 7
	note G_, 1
	rest 3
	note_type 12, 9, 5
	rest 2
	octave 4
	note E_, 2
	note G_, 1
	rest 1
	note E_, 1
	note_type 6, 9, 7
	rest 1
	note C_, 1
	note C#, 4
	octave 3
	note B_, 2
	rest 2
	note A_, 3
	rest 1
	note G_, 2
	rest 2
	note F#, 2
	note D_, 2
	octave 2
	note A_, 2
	octave 3
	note D_, 2
	note A_, 2
	note F#, 2
	note D_, 2
	note A_, 2
	octave 4
	note D_, 2
	octave 3
	note A_, 2
	note F#, 2
	note A_, 2
	octave 4
	note C_, 2
	note D_, 2
	note F#, 2
	note A_, 2
	sound_jump .mainloop

Music_HighSpeed_Ch2:
	vibrato 8, 3, 3
	note_type 12, 11, 7
	rest 2
.mainloop:
	note_type 12, 11, 7
	stereo_panning TRUE, FALSE
	duty_cycle 2
	volume_envelope 6, 1
	sound_call .sub4
	sound_call .sub5
	stereo_panning FALSE, TRUE
	volume_envelope 13, 7
	sound_call .sub3
	note B_, 1
	rest 1
	note G_, 1
	rest 3
	octave 3
	note G_, 6
	note G_, 1
	note B_, 1
	octave 4
	note C#, 1
	note E_, 1
	transpose 0, 12
	sound_call .sub3
	transpose 0, 0
	octave 3
	note B_, 1
	rest 1
	note G_, 1
	rest 3
	octave 4
	note G_, 6
	rest 2
	stereo_panning TRUE, TRUE
	duty_cycle 3
	pitch_offset 1
	volume_envelope 11, 7
	octave 3
	note B_, 1
	octave 4
	note C_, 1
	sound_call .sub1
	note G_, 4
	rest 4
	note G_, 8
	note A_, 8
	note B_, 8
	note_type 12, 11, 7
	octave 5
	note C_, 10
	note D_, 2
	note C_, 2
	octave 4
	note G_, 2
	note B_, 6
	note A_, 6
	rest 2
	octave 3
	note B_, 1
	octave 4
	note C_, 1
	sound_call .sub1
	note G_, 4
	rest 4
	note G_, 8
	note A_, 8
	note B_, 8
	octave 5
	note D#, 1
	vibrato 0, 0, 0
	volume_envelope 9, 8
	note E_, 10
	vibrato 4, 2, 3
	volume_envelope 9, 7
	note E_, 9
	vibrato 8, 2, 3
	note D_, 4
	note C_, 4
	octave 4
	note G_, 4
	note B_, 12
	note A_, 12
	rest 4
	pitch_offset 0
	duty_cycle 0
	note B_, 2
	note A_, 2
	sound_call .sub2
	note_type 6, 11, 7
	note G#, 1
	note A_, 11
	note G_, 2
	note F#, 2
	note G_, 12
	rest 4
	rest 4
	note E_, 2
	rest 2
	note E_, 2
	rest 2
	note G_, 2
	rest 2
	note A_, 2
	rest 2
	note E_, 2
	rest 2
	note F#, 2
	rest 2
	note G_, 2
	rest 2
	note A_, 16
	note A#, 12
	note B_, 2
	note A_, 2
	sound_call .sub2
	note_type 6, 11, 7
	note G#, 1
	note A_, 11
	note B_, 4
	note G_, 12
	rest 4
	rest 4
	octave 5
	note C_, 4
	note D_, 2
	rest 2
	note C_, 2
	rest 1
	octave 4
	note A#, 1
	note B_, 4
	note A_, 2
	rest 2
	note G_, 4
	note E_, 2
	rest 2
	note F#, 8
	note G_, 8
	note A_, 8
	rest 8
	sound_jump .mainloop

.sub1:
	note D_, 6
	octave 3
	note B_, 1
	octave 4
	note C_, 1
	note D_, 2
	octave 3
	note B_, 1
	octave 4
	note C_, 1
	note D_, 2
	octave 3
	note B_, 1
	octave 4
	note C_, 1
	note D_, 2
	rest 2
	note G_, 2
	rest 2
	note A_, 2
	rest 2
	note A#, 2
	rest 2
	note B_, 6
	note F#, 6
	rest 4
	duty_cycle 1
	note_type 6, 11, 7
	octave 3
	note A_, 1
	rest 1
	octave 4
	note D_, 1
	rest 1
	note F#, 1
	rest 1
	note A_, 1
	rest 1
	note D_, 1
	rest 1
	note F#, 1
	rest 1
	note A_, 1
	rest 1
	octave 5
	note D_, 1
	rest 1
	note F#, 1
	rest 1
	note D_, 1
	rest 1
	octave 4
	note A#, 1
	rest 1
	note F#, 1
	rest 1
	note A#, 1
	rest 1
	note F#, 1
	rest 1
	duty_cycle 3
	note E_, 2
	note F#, 2
	note G_, 12
	note E_, 2
	note F#, 2
	note G_, 4
	note E_, 2
	note F#, 2
	note G_, 4
	note E_, 2
	note F#, 2
	sound_ret

.sub2:
	note_type 12, 11, 7
	note B_, 10
	note F#, 1
	rest 1
	note B_, 1
	rest 1
	note F#, 1
	rest 1
	sound_ret

.sub3:
	octave 3
	note D_, 10
	note E_, 1
	rest 3
	note D_, 1
	rest 1
	note C#, 12
	octave 2
	note A_, 1
	rest 1
	note B_, 1
	rest 1
	octave 3
	note C_, 8
	rest 2
	octave 2
	note B_, 1
	rest 3
	note A_, 1
	rest 1
	sound_ret

.sub4:
	octave 5
	note G_, 1
	note D_, 1
	octave 4
	note B_, 1
	note G_, 1
	octave 5
	note G_, 1
	note D_, 1
	octave 4
	note B_, 1
	note G_, 1
	octave 5
	note G_, 1
	note D_, 1
	octave 4
	note B_, 1
	note G_, 1
	octave 5
	note G_, 1
	note D_, 1
	octave 4
	note B_, 1
	note G_, 1
	octave 5
	note G_, 1
	note C#, 1
	octave 4
	note A#, 1
	note G_, 1
	octave 5
	note G_, 1
	note C#, 1
	octave 4
	note A#, 1
	note G_, 1
	octave 5
	note G_, 1
	note C#, 1
	octave 4
	note A#, 1
	note G_, 1
	octave 5
	note G_, 1
	note C#, 1
	octave 4
	note A#, 1
	note G_, 1
	octave 5
	note G_, 1
	note C_, 1
	octave 4
	note A_, 1
	note G_, 1
	octave 5
	note G_, 1
	note C_, 1
	octave 4
	note A_, 1
	note G_, 1
	octave 5
	note G_, 1
	note C_, 1
	octave 4
	note A_, 1
	note G_, 1
	octave 5
	note G_, 1
	note C_, 1
	octave 4
	note A_, 1
	note G_, 1
	sound_ret

.sub5:
	octave 5
	note G_, 1
	octave 4
	note B_, 1
	note A_, 1
	note G_, 1
	octave 5
	note G_, 1
	octave 4
	note B_, 1
	note A_, 1
	note G_, 1
	octave 5
	note G_, 1
	note D_, 1
	octave 4
	note B_, 1
	note G_, 1
	note B_, 1
	note G_, 1
	note C#, 1
	octave 3
	note G_, 1
	sound_ret

Music_HighSpeed_Ch3:
	stereo_panning TRUE, TRUE
	vibrato 8, 3, 4
	note_type 6, 1, 0
	octave 2
	note G_, 1
	rest 1
	note G_, 1
	rest 1
.mainloop:
	note G_, 16
	rest 8
	note G_, 2
	rest 2
	note_type 12, 1, 0
	note G_, 2
	note G_, 10
	rest 4
	note_type 6, 1, 0
	note G_, 1
	rest 1
	note G_, 1
	rest 1
	note G_, 16
	rest 8
	note G_, 2
	rest 2
	note_type 12, 1, 0
	note G_, 2
	note G_, 8
	volume_envelope 1, 4
	note B_, 1
	octave 3
	note C#, 1
	note D_, 1
	note G_, 1
	note D_, 1
	note G_, 1
	note B_, 1
	octave 4
	note E_, 1
	volume_envelope 1, 0
	sound_call .sub1
	sound_call .sub1
.loop1:
	note G_, 2
	rest 2
	octave 3
	note G_, 1
	rest 3
	octave 2
	note G_, 2
	rest 2
	octave 3
	note G_, 1
	rest 3
	octave 2
	note G_, 2
	rest 2
	octave 3
	note G_, 1
	rest 3
	octave 2
	note G_, 2
	rest 2
	octave 3
	note G_, 1
	rest 1
	octave 2
	note G_, 1
	rest 1
	sound_loop 4, .loop1
	sound_call .sub2
	sound_call .sub2
	sound_call .sub3
	stereo_panning TRUE, TRUE
	volume_envelope 1, 0
	octave 3
	note E_, 2
	rest 2
	stereo_panning FALSE, TRUE
	volume_envelope 1, 4
	octave 4
	note E_, 1
	rest 3
	stereo_panning TRUE, TRUE
	volume_envelope 1, 0
	octave 3
	note D#, 2
	rest 2
	stereo_panning FALSE, TRUE
	volume_envelope 1, 4
	octave 4
	note D#, 1
	rest 3
	stereo_panning TRUE, TRUE
	volume_envelope 1, 0
	octave 3
	note D_, 2
	rest 2
	stereo_panning FALSE, TRUE
	volume_envelope 1, 4
	octave 4
	note D_, 1
	rest 3
	stereo_panning TRUE, TRUE
	volume_envelope 1, 0
	octave 3
	note D#, 2
	rest 2
	stereo_panning FALSE, TRUE
	volume_envelope 1, 4
	octave 4
	note D#, 1
	rest 3
	stereo_panning TRUE, TRUE
	volume_envelope 1, 0
	octave 2
	note A_, 2
	rest 2
	stereo_panning FALSE, TRUE
	volume_envelope 1, 4
	octave 4
	note C_, 1
	rest 3
	stereo_panning TRUE, TRUE
	volume_envelope 1, 0
	octave 2
	note A_, 2
	rest 2
	stereo_panning FALSE, TRUE
	volume_envelope 1, 4
	octave 4
	note C_, 1
	rest 3
	stereo_panning TRUE, TRUE
	volume_envelope 1, 0
	octave 2
	note A_, 2
	rest 2
	stereo_panning FALSE, TRUE
	volume_envelope 1, 4
	octave 4
	note C#, 1
	rest 3
	stereo_panning TRUE, TRUE
	volume_envelope 1, 0
	octave 2
	note A_, 2
	rest 2
	stereo_panning FALSE, TRUE
	volume_envelope 1, 4
	octave 4
	note C#, 1
	rest 3
	stereo_panning TRUE, TRUE
	volume_envelope 1, 0
	octave 3
	note D_, 2
	rest 2
	stereo_panning FALSE, TRUE
	volume_envelope 1, 4
	octave 4
	note G_, 1
	rest 3
	stereo_panning TRUE, TRUE
	volume_envelope 1, 0
	octave 3
	note D_, 2
	rest 2
	stereo_panning FALSE, TRUE
	volume_envelope 1, 4
	octave 4
	note G_, 1
	rest 3
	stereo_panning TRUE, TRUE
	volume_envelope 1, 0
	octave 3
	note D_, 2
	rest 2
	stereo_panning FALSE, TRUE
	volume_envelope 1, 4
	octave 4
	note F#, 1
	rest 3
	stereo_panning TRUE, TRUE
	volume_envelope 1, 0
	octave 3
	note D_, 2
	rest 2
	stereo_panning FALSE, TRUE
	volume_envelope 1, 4
	octave 4
	note F#, 1
	rest 3
	sound_call .sub3
	stereo_panning TRUE, TRUE
	volume_envelope 1, 0
	octave 3
	note E_, 2
	rest 2
	stereo_panning FALSE, TRUE
	volume_envelope 1, 4
	octave 4
	note E_, 1
	rest 3
	stereo_panning TRUE, TRUE
	volume_envelope 1, 0
	octave 3
	note E_, 2
	rest 2
	stereo_panning FALSE, TRUE
	volume_envelope 1, 4
	octave 4
	note D#, 1
	rest 3
	stereo_panning TRUE, TRUE
	volume_envelope 1, 0
	octave 2
	note A_, 2
	rest 2
	stereo_panning FALSE, TRUE
	volume_envelope 1, 4
	octave 4
	note C#, 1
	rest 3
	stereo_panning TRUE, TRUE
	volume_envelope 1, 0
	octave 2
	note A_, 2
	rest 2
	stereo_panning FALSE, TRUE
	volume_envelope 1, 4
	octave 4
	note C#, 1
	rest 3
	stereo_panning TRUE, TRUE
	volume_envelope 1, 0
	octave 3
	note C_, 2
	rest 2
	stereo_panning FALSE, TRUE
	volume_envelope 1, 4
	octave 4
	note G_, 1
	rest 3
	stereo_panning TRUE, TRUE
	volume_envelope 1, 0
	octave 3
	note C_, 2
	rest 2
	stereo_panning FALSE, TRUE
	volume_envelope 1, 4
	octave 4
	note G_, 1
	rest 3
	stereo_panning TRUE, TRUE
	volume_envelope 1, 0
	octave 3
	note C#, 2
	rest 2
	stereo_panning FALSE, TRUE
	volume_envelope 1, 4
	octave 4
	note G_, 1
	rest 3
	stereo_panning TRUE, TRUE
	volume_envelope 1, 0
	octave 3
	note C#, 2
	rest 2
	stereo_panning FALSE, TRUE
	volume_envelope 1, 4
	octave 4
	note G_, 1
	rest 3
	stereo_panning TRUE, TRUE
	volume_envelope 1, 0
	octave 3
	note D_, 2
	rest 2
	stereo_panning FALSE, TRUE
	volume_envelope 1, 4
	octave 4
	note G_, 1
	rest 3
	stereo_panning TRUE, TRUE
	volume_envelope 1, 0
	octave 3
	note D_, 2
	rest 2
	stereo_panning FALSE, TRUE
	volume_envelope 1, 4
	octave 4
	note G_, 1
	rest 3
	stereo_panning TRUE, TRUE
	volume_envelope 1, 0
	octave 3
	note D_, 2
	rest 2
	stereo_panning FALSE, TRUE
	volume_envelope 1, 4
	octave 4
	note F#, 1
	rest 3
	stereo_panning TRUE, TRUE
	volume_envelope 1, 0
	octave 3
	note D_, 2
	rest 2
	octave 2
	note G_, 1
	rest 1
	note G_, 1
	rest 1
	sound_jump .mainloop

.sub1:
	note_type 6, 1, 0
	octave 2
	note G_, 2
	rest 6
	note G_, 2
	rest 6
	note G_, 2
	rest 2
	octave 3
	note G_, 2
	rest 2
	octave 2
	note G_, 2
	rest 4
	note G_, 1
	rest 1
	note G_, 2
	rest 6
	note G_, 2
	rest 2
	octave 3
	note G_, 1
	rest 3
	octave 2
	note G_, 2
	rest 2
	octave 3
	note G_, 1
	rest 3
	octave 2
	note G_, 2
	rest 4
	note G_, 1
	rest 1
	sound_ret

.sub2:
	stereo_panning TRUE, TRUE
	volume_envelope 1, 0
	octave 2
	note G_, 2
	rest 2
	stereo_panning FALSE, TRUE
	volume_envelope 1, 4
	octave 4
	note D_, 1
	rest 3
	stereo_panning TRUE, TRUE
	volume_envelope 1, 0
	octave 2
	note G_, 2
	rest 2
	stereo_panning FALSE, TRUE
	volume_envelope 1, 4
	octave 4
	note D_, 1
	rest 3
	stereo_panning TRUE, TRUE
	volume_envelope 1, 0
	octave 2
	note G_, 2
	rest 2
	stereo_panning FALSE, TRUE
	volume_envelope 1, 4
	octave 4
	note E_, 1
	rest 3
	stereo_panning TRUE, TRUE
	volume_envelope 1, 0
	octave 2
	note G_, 2
	rest 2
	stereo_panning FALSE, TRUE
	volume_envelope 1, 4
	octave 4
	note E_, 1
	rest 1
	stereo_panning TRUE, TRUE
	volume_envelope 1, 0
	octave 2
	note G_, 1
	rest 1
	note G_, 2
	rest 2
	stereo_panning FALSE, TRUE
	volume_envelope 1, 4
	octave 4
	note F#, 1
	rest 3
	stereo_panning TRUE, TRUE
	volume_envelope 1, 0
	octave 2
	note G_, 2
	rest 2
	stereo_panning FALSE, TRUE
	volume_envelope 1, 4
	octave 4
	note F#, 1
	rest 3
	stereo_panning TRUE, TRUE
	volume_envelope 1, 0
	octave 2
	note G_, 2
	rest 2
	stereo_panning FALSE, TRUE
	volume_envelope 1, 4
	octave 4
	note G_, 4
	note F#, 4
	note E_, 2
	rest 2
	stereo_panning TRUE, TRUE
	volume_envelope 1, 0
	octave 2
	note B_, 2
	rest 2
	stereo_panning FALSE, TRUE
	volume_envelope 1, 4
	octave 4
	note F#, 1
	rest 3
	stereo_panning TRUE, TRUE
	volume_envelope 1, 0
	octave 2
	note B_, 2
	rest 2
	stereo_panning FALSE, TRUE
	volume_envelope 1, 4
	octave 4
	note F#, 1
	rest 3
	stereo_panning TRUE, TRUE
	volume_envelope 1, 0
	octave 2
	note A#, 2
	rest 2
	stereo_panning FALSE, TRUE
	volume_envelope 1, 4
	octave 3
	note A#, 1
	rest 3
	stereo_panning TRUE, TRUE
	volume_envelope 1, 0
	octave 2
	note A#, 2
	rest 2
	stereo_panning FALSE, TRUE
	volume_envelope 1, 4
	octave 3
	note A#, 1
	rest 3
	stereo_panning TRUE, TRUE
	volume_envelope 1, 0
	octave 2
	note A_, 2
	rest 2
	stereo_panning FALSE, TRUE
	volume_envelope 1, 4
	octave 3
	note A_, 1
	rest 3
	stereo_panning TRUE, TRUE
	volume_envelope 1, 0
	octave 2
	note A_, 2
	rest 2
	stereo_panning FALSE, TRUE
	volume_envelope 1, 4
	octave 3
	note A_, 1
	rest 3
	stereo_panning TRUE, TRUE
	volume_envelope 1, 0
	octave 2
	note A#, 2
	rest 2
	stereo_panning FALSE, TRUE
	volume_envelope 1, 4
	octave 3
	note A#, 1
	rest 3
	stereo_panning TRUE, TRUE
	volume_envelope 1, 0
	octave 2
	note A#, 2
	rest 2
	stereo_panning FALSE, TRUE
	volume_envelope 1, 4
	octave 3
	note A#, 1
	rest 1
	stereo_panning TRUE, TRUE
	volume_envelope 1, 0
	note D#, 1
	rest 1
	note E_, 2
	rest 2
	stereo_panning FALSE, TRUE
	volume_envelope 1, 4
	octave 4
	note E_, 1
	rest 3
	stereo_panning TRUE, TRUE
	volume_envelope 1, 0
	octave 3
	note E_, 2
	rest 2
	stereo_panning FALSE, TRUE
	volume_envelope 1, 4
	octave 4
	note E_, 1
	rest 3
	stereo_panning TRUE, TRUE
	volume_envelope 1, 0
	octave 3
	note D#, 2
	rest 2
	stereo_panning FALSE, TRUE
	volume_envelope 1, 4
	octave 4
	note D#, 1
	rest 3
	stereo_panning TRUE, TRUE
	volume_envelope 1, 0
	octave 3
	note D#, 2
	rest 2
	stereo_panning FALSE, TRUE
	volume_envelope 1, 4
	octave 4
	note D#, 1
	rest 1
	stereo_panning TRUE, TRUE
	volume_envelope 1, 0
	octave 3
	note C#, 1
	rest 1
	note D_, 2
	rest 2
	stereo_panning FALSE, TRUE
	volume_envelope 1, 4
	octave 4
	note D_, 1
	rest 3
	stereo_panning TRUE, TRUE
	volume_envelope 1, 0
	octave 3
	note D_, 2
	rest 2
	stereo_panning FALSE, TRUE
	volume_envelope 1, 4
	octave 4
	note D_, 1
	rest 3
	stereo_panning TRUE, TRUE
	volume_envelope 1, 0
	octave 3
	note C#, 2
	rest 2
	stereo_panning FALSE, TRUE
	volume_envelope 1, 4
	octave 4
	note B_, 4
	note G_, 4
	note E_, 2
	rest 2
	stereo_panning TRUE, TRUE
	volume_envelope 1, 0
	octave 3
	note C_, 2
	rest 2
	stereo_panning FALSE, TRUE
	volume_envelope 1, 4
	octave 4
	note G_, 1
	rest 3
	stereo_panning TRUE, TRUE
	volume_envelope 1, 0
	octave 3
	note C_, 2
	rest 2
	stereo_panning FALSE, TRUE
	volume_envelope 1, 4
	octave 4
	note G_, 1
	rest 3
	stereo_panning TRUE, TRUE
	volume_envelope 1, 0
	octave 2
	note A_, 2
	rest 2
	stereo_panning FALSE, TRUE
	volume_envelope 1, 4
	octave 4
	note E_, 1
	rest 3
	stereo_panning TRUE, TRUE
	volume_envelope 1, 0
	octave 2
	note A_, 2
	rest 2
	stereo_panning FALSE, TRUE
	volume_envelope 1, 4
	octave 4
	note E_, 1
	rest 3
	stereo_panning TRUE, TRUE
	volume_envelope 1, 0
	octave 3
	note D_, 2
	rest 2
	stereo_panning FALSE, TRUE
	volume_envelope 1, 4
	octave 4
	note G_, 1
	rest 3
	stereo_panning TRUE, TRUE
	volume_envelope 1, 0
	octave 3
	note D_, 2
	rest 2
	stereo_panning FALSE, TRUE
	volume_envelope 1, 4
	octave 4
	note G_, 1
	rest 3
	stereo_panning TRUE, TRUE
	volume_envelope 1, 0
	octave 3
	note D_, 2
	rest 2
	stereo_panning FALSE, TRUE
	volume_envelope 1, 4
	octave 4
	note F#, 1
	rest 3
	stereo_panning TRUE, TRUE
	volume_envelope 1, 0
	octave 3
	note D_, 2
	rest 2
	stereo_panning FALSE, TRUE
	volume_envelope 1, 4
	octave 4
	note F#, 1
	rest 3
	sound_ret

.sub3:
	stereo_panning TRUE, TRUE
	volume_envelope 1, 0
	octave 2
	note B_, 2
	rest 2
	stereo_panning FALSE, TRUE
	volume_envelope 1, 4
	octave 4
	note F#, 1
	rest 3
	stereo_panning TRUE, TRUE
	volume_envelope 1, 0
	octave 2
	note B_, 2
	rest 2
	stereo_panning FALSE, TRUE
	volume_envelope 1, 4
	octave 4
	note F#, 1
	rest 3
	stereo_panning TRUE, TRUE
	volume_envelope 1, 0
	octave 2
	note B_, 2
	rest 2
	stereo_panning FALSE, TRUE
	volume_envelope 1, 4
	octave 4
	note D#, 1
	rest 3
	stereo_panning TRUE, TRUE
	volume_envelope 1, 0
	octave 2
	note B_, 2
	rest 2
	stereo_panning FALSE, TRUE
	volume_envelope 1, 4
	octave 4
	note D#, 1
	rest 3
	sound_ret

Music_HighSpeed_Ch4:
	toggle_noise 2
	drum_speed 12
	rest 2
.mainloop:
.loop1:
	drum_note 2, 1
	drum_note 1, 1
	drum_note 1, 1
	drum_note 1, 1
	drum_note 1, 1
	drum_note 1, 1
	drum_note 1, 1
	drum_note 1, 1
	drum_note 1, 1
	drum_note 1, 1
	drum_note 1, 1
	drum_note 1, 1
	drum_note 1, 1
	drum_note 1, 1
	drum_note 2, 1
	drum_note 1, 1
	sound_loop 12, .loop1
	sound_call .sub1
	sound_call .sub1
	sound_call .sub1
	sound_call .sub2
	sound_call .sub1
	sound_call .sub1
	sound_call .sub1
	sound_call .sub2
	sound_call .sub1
	sound_call .sub1
	sound_call .sub1
	sound_call .sub2
	sound_call .sub1
	sound_call .sub1
	sound_call .sub1
	sound_call .sub3
	sound_call .sub1
	sound_call .sub1
	sound_call .sub1
	sound_call .sub2
	sound_call .sub1
	sound_call .sub1
	sound_call .sub1
	sound_call .sub3
	sound_jump .mainloop

.sub1:
	drum_note 5, 2
	drum_note 1, 1
	drum_note 1, 1
	drum_note 9, 2
	drum_note 1, 1
	drum_note 1, 1
	drum_note 5, 2
	drum_note 1, 1
	drum_note 1, 1
	drum_note 9, 2
	drum_note 1, 1
	drum_note 1, 1
	sound_ret

.sub2:
	drum_note 5, 2
	drum_note 1, 1
	drum_note 1, 1
	drum_note 9, 2
	drum_note 1, 1
	drum_note 1, 1
	drum_note 5, 2
	drum_note 1, 1
	drum_note 1, 1
	drum_note 9, 2
	drum_note 12, 2
	sound_ret

.sub3:
	drum_note 5, 2
	drum_note 1, 1
	drum_note 1, 1
	drum_note 9, 2
	drum_note 1, 1
	drum_note 1, 1
	drum_note 9, 1
	drum_note 9, 1
	drum_note 9, 2
	drum_note 9, 2
	drum_note 3, 2
	sound_ret


